<?xml version="1.0" encoding="UTF-8"?>
<svg width="148px" height="50px" viewBox="0 0 148 50" version="1.1" xmlns="http://www.w3.org/2000/svg" xmlns:xlink="http://www.w3.org/1999/xlink">
    <!-- Generator: Sketch 52.1 (67048) - http://www.bohemiancoding.com/sketch -->
    <title>apple</title>
    <desc>Created with Sketch.</desc>
    <g id="Homepage" stroke="none" stroke-width="1" fill="none" fill-rule="evenodd">
        <g transform="translate(-810.000000, -3220.000000)" id="Footer">
            <g transform="translate(0.000000, 3112.000000)">
                <g id="apple" transform="translate(810.000000, 108.000000)">
                    <rect id="bg" fill="#fff" x="0" y="0" width="148" height="50" rx="6.336"></rect>
                    <path d="M57.318351,36.5570526 L54.7990229,36.5570526 L53.4189947,32.2365789 L48.6221764,32.2365789 L47.3075996,36.5570526 L44.8548325,36.5570526 L49.6072769,21.8482105 L52.5426102,21.8482105 L57.318351,36.5570526 L57.318351,36.5570526 Z M53.0029894,30.4239474 L49.039291,30.4239474 L50.2651199,26.5831579 C50.5868307,25.3618421 50.820903,24.4378421 50.9662275,23.8122632 L51.0106014,23.8122632 C51.3755767,25.2667895 51.6229612,26.1907895 51.7549735,26.5831579 L53.0029894,30.4239474 Z M69.5400317,31.1235789 C69.5400317,32.9273684 69.0508095,34.3531579 68.0723651,35.3998421 C67.1959806,36.3315789 66.1077108,36.7968947 64.8086649,36.7968947 C63.4064497,36.7968947 62.3991623,36.2951053 61.7856931,35.2915263 L61.7413192,35.2915263 L61.7413192,40.8786316 L59.3761905,40.8786316 L59.3761905,29.4424737 C59.3761905,28.3084737 59.3462381,27.1446316 59.288552,25.9509474 L61.3685785,25.9509474 L61.5005908,27.6320526 L61.5449647,27.6320526 C62.3337108,26.3654211 63.5306966,25.7332105 65.1370317,25.7332105 C66.3928131,25.7332105 67.4411464,26.2272632 68.2798131,27.2164737 C69.1206984,28.2067895 69.5400317,29.5087895 69.5400317,31.1235789 Z M67.1305291,31.2097895 C67.1305291,30.1774737 66.8975661,29.3264211 66.4294215,28.6566316 C65.9180123,27.9581053 65.2313263,27.6088421 64.3704727,27.6088421 C63.7869559,27.6088421 63.2566878,27.8033684 62.7829965,28.1868947 C62.3081958,28.5737368 61.9975785,29.0788421 61.852254,29.7044211 C61.779037,29.9962105 61.7424286,30.2349474 61.7424286,30.4228421 L61.7424286,32.1912632 C61.7424286,32.9627368 61.9798289,33.6137368 62.4546296,34.1453684 C62.9294303,34.677 63.5462275,34.9422632 64.3050212,34.9422632 C65.1958272,34.9422632 65.8891693,34.5996316 66.3850476,33.9165789 C66.8820353,33.2324211 67.1305291,32.3305263 67.1305291,31.2097895 Z M81.7838995,31.1235789 C81.7838995,32.9273684 81.2946772,34.3531579 80.3151235,35.3998421 C79.4398483,36.3315789 78.3515785,36.7968947 77.0525326,36.7968947 C75.6503175,36.7968947 74.64303,36.2951053 74.0306702,35.2915263 L73.9862963,35.2915263 L73.9862963,40.8786316 L71.6211675,40.8786316 L71.6211675,29.4424737 C71.6211675,28.3084737 71.5912152,27.1446316 71.5335291,25.9509474 L73.6135556,25.9509474 L73.7455679,27.6320526 L73.7899418,27.6320526 C74.5775785,26.3654211 75.7745644,25.7332105 77.3820088,25.7332105 C78.6366808,25.7332105 79.6850141,26.2272632 80.5258995,27.2164737 C81.3634568,28.2067895 81.7838995,29.5087895 81.7838995,31.1235789 Z M79.3743968,31.2097895 C79.3743968,30.1774737 79.1403245,29.3264211 78.6721799,28.6566316 C78.1607707,27.9581053 77.4763034,27.6088421 76.6143404,27.6088421 C76.0297143,27.6088421 75.5005556,27.8033684 75.0257549,28.1868947 C74.5509541,28.5737368 74.2414462,29.0788421 74.0961217,29.7044211 C74.0240141,29.9962105 73.9862963,30.2349474 73.9862963,30.4228421 L73.9862963,32.1912632 C73.9862963,32.9627368 74.2236966,33.6137368 74.6962787,34.1453684 C75.1710794,34.6758947 75.7878765,34.9422632 76.5488889,34.9422632 C77.4396949,34.9422632 78.133037,34.5996316 78.6289153,33.9165789 C79.125903,33.2324211 79.3743968,32.3305263 79.3743968,31.2097895 Z M95.4732469,32.4322105 C95.4732469,33.6833684 95.0372734,34.7013158 94.1619982,35.4871579 C93.200194,36.3459474 91.8612116,36.7747895 90.1406138,36.7747895 C88.5520282,36.7747895 87.2784974,36.4697368 86.3144744,35.8585263 L86.8624921,33.8944737 C87.9008413,34.5200526 89.0401411,34.8339474 90.2815009,34.8339474 C91.1723069,34.8339474 91.865649,34.6327895 92.363746,34.2326842 C92.8596243,33.8325789 93.1070088,33.2954211 93.1070088,32.6256316 C93.1070088,32.0287895 92.9028889,31.5258947 92.4935397,31.1180526 C92.0864092,30.7102105 91.4063792,30.3311053 90.4567778,29.9807368 C87.8719982,29.0202632 86.5807178,27.6132632 86.5807178,25.7630526 C86.5807178,24.5538947 87.0333316,23.5624737 87.9396684,22.791 C88.8426772,22.0184211 90.0474286,21.6326842 91.5539224,21.6326842 C92.8973422,21.6326842 94.0133457,21.8658947 94.9041517,22.3312105 L94.3128695,24.2521579 C93.4808589,23.8012105 92.5401323,23.5757368 91.4873616,23.5757368 C90.655351,23.5757368 90.0052734,23.7802105 89.5393474,24.1869474 C89.1455291,24.5505789 88.9480653,24.9937895 88.9480653,25.5187895 C88.9480653,26.1001579 89.1732628,26.5809474 89.6258765,26.9589474 C90.0196949,27.3082105 90.735224,27.6862105 91.7735732,28.0940526 C93.043776,28.6035789 93.9767372,29.1993158 94.5768942,29.8823684 C95.1748325,30.5632105 95.4732469,31.4153684 95.4732469,32.4322105 Z M103.293037,27.7193684 L100.686071,27.7193684 L100.686071,32.8687895 C100.686071,34.1785263 101.14534,34.8328421 102.066099,34.8328421 C102.48876,34.8328421 102.839314,34.7963684 103.116651,34.7234211 L103.182102,36.5128421 C102.716176,36.6863684 102.102707,36.7736842 101.342804,36.7736842 C100.408734,36.7736842 99.6787831,36.4896316 99.151843,35.9226316 C98.6271217,35.3545263 98.363097,34.4017895 98.363097,33.0633158 L98.363097,27.7171579 L96.8100106,27.7171579 L96.8100106,25.9487368 L98.363097,25.9487368 L98.363097,24.0067895 L100.686071,23.3082632 L100.686071,25.9487368 L103.293037,25.9487368 L103.293037,27.7193684 Z M115.055448,31.1666842 C115.055448,32.7969474 114.587303,34.1354211 113.653233,35.1821053 C112.673679,36.2597368 111.373524,36.7968947 109.752767,36.7968947 C108.190806,36.7968947 106.947228,36.2807368 106.019813,35.2484211 C105.092399,34.2161053 104.628691,32.913 104.628691,31.3424211 C104.628691,29.6988947 105.105711,28.3526842 106.063078,27.306 C107.018226,26.2582105 108.307287,25.7343158 109.928044,25.7343158 C111.490005,25.7343158 112.746896,26.2504737 113.695388,27.2838947 C114.602834,28.2863684 115.055448,29.5806316 115.055448,31.1666842 Z M112.601571,31.2429474 C112.601571,30.2647895 112.391905,29.4258947 111.967025,28.7262632 C111.471146,27.8796316 110.762273,27.4574211 109.843734,27.4574211 C108.893023,27.4574211 108.170838,27.8807368 107.674959,28.7262632 C107.250079,29.427 107.040413,30.2791579 107.040413,31.2871579 C107.040413,32.2653158 107.250079,33.1042105 107.674959,33.8027368 C108.186369,34.6493684 108.900788,35.0715789 109.822656,35.0715789 C110.725665,35.0715789 111.434538,34.6405263 111.945947,33.7806316 C112.381921,33.0677368 112.601571,32.22 112.601571,31.2429474 Z M122.743226,28.0233158 C122.509153,27.9802105 122.25955,27.9581053 121.997744,27.9581053 C121.165734,27.9581053 120.522312,28.2708947 120.069698,28.8975789 C119.67588,29.4502105 119.478416,30.1487368 119.478416,30.9920526 L119.478416,36.5570526 L117.114397,36.5570526 L117.136584,29.2910526 C117.136584,28.0686316 117.106631,26.9556316 117.047836,25.9520526 L119.107894,25.9520526 L119.194423,27.9813158 L119.259875,27.9813158 C119.509478,27.2838947 119.903296,26.7224211 120.442439,26.3013158 C120.969379,25.9222105 121.538474,25.7332105 122.151944,25.7332105 C122.370485,25.7332105 122.567949,25.7486842 122.743226,25.7763158 L122.743226,28.0233158 Z M133.320854,30.7522105 C133.320854,31.1744211 133.29312,31.5303158 133.234325,31.821 L126.138938,31.821 C126.166672,32.8687895 126.50946,33.6701053 127.168413,34.2227368 C127.766351,34.7167895 128.539566,34.9643684 129.489168,34.9643684 C130.53972,34.9643684 131.498196,34.7974737 132.360159,34.4625789 L132.730681,36.0983684 C131.723393,36.5360526 130.534173,36.7537895 129.16191,36.7537895 C127.511201,36.7537895 126.215483,36.2696842 125.272538,35.3025789 C124.331811,34.3354737 123.860339,33.0367895 123.860339,31.4076316 C123.860339,29.8083158 124.298531,28.4764737 125.176025,27.4143158 C126.094564,26.2803158 127.335924,25.7133158 128.897885,25.7133158 C130.432113,25.7133158 131.5936,26.2803158 132.382346,27.4143158 C133.006908,28.3151053 133.320854,29.4292105 133.320854,30.7522105 Z M131.06555,30.141 C131.081081,29.4424737 130.926882,28.839 130.60628,28.3294737 C130.196931,27.6740526 129.567931,27.3468947 128.721499,27.3468947 C127.948284,27.3468947 127.319284,27.6663158 126.838937,28.3073684 C126.445118,28.8168947 126.211046,29.4281053 126.138938,30.1398947 L131.06555,30.1398947 L131.06555,30.141 Z" id="app-store" fill="#ff4a37"></path>
                    <path d="M52.2208995,12.7994211 C52.2208995,14.1003158 51.8292998,15.0795789 51.0472099,15.7372105 C50.322806,16.344 49.2933316,16.6479474 47.9598959,16.6479474 C47.2987249,16.6479474 46.7329577,16.6192105 46.2592663,16.5617368 L46.2592663,9.45378947 C46.8771728,9.35431579 47.5427813,9.30347368 48.2616384,9.30347368 C49.5318413,9.30347368 50.4892081,9.57868421 51.1348483,10.1291053 C51.8581429,10.7513684 52.2208995,11.6411053 52.2208995,12.7994211 Z M50.9950705,12.8314737 C50.9950705,11.9881579 50.7709824,11.3415789 50.322806,10.8906316 C49.8746296,10.4407895 49.2201146,10.2153158 48.3581517,10.2153158 C47.992067,10.2153158 47.6803404,10.2396316 47.4218624,10.2904737 L47.4218624,15.6941053 C47.5649683,15.7162105 47.8267743,15.7261579 48.2072804,15.7261579 C49.0969771,15.7261579 49.7836631,15.4796842 50.2673386,14.9867368 C50.7510141,14.4937895 50.9950705,13.7753684 50.9950705,12.8314737 Z M58.7205661,13.9356316 C58.7205661,14.7369474 58.4909312,15.3934737 58.0316614,15.9085263 C57.5502046,16.4379474 56.9123298,16.7021053 56.1158183,16.7021053 C55.3481499,16.7021053 54.7368995,16.449 54.2809577,15.9405789 C53.8261252,15.4332632 53.598709,14.7933158 53.598709,14.0218421 C53.598709,13.215 53.8327813,12.5529474 54.3031446,12.039 C54.7735079,11.5250526 55.405836,11.2675263 56.2023474,11.2675263 C56.9700159,11.2675263 57.5868131,11.5206316 58.0538483,12.0279474 C58.4975873,12.5208947 58.7205661,13.1575263 58.7205661,13.9356316 Z M57.5147055,13.9732105 C57.5147055,13.4924211 57.4104268,13.0801579 57.2029788,12.7364211 C56.9589224,12.3208421 56.6116966,12.1130526 56.1601922,12.1130526 C55.693157,12.1130526 55.3381658,12.3208421 55.0941093,12.7364211 C54.885552,13.0801579 54.7823827,13.4990526 54.7823827,13.9942105 C54.7823827,14.475 54.8866614,14.8872632 55.0941093,15.231 C55.3459312,15.6465789 55.696485,15.8543684 56.1490988,15.8543684 C56.5928377,15.8543684 56.9411728,15.6432632 57.1918854,15.2199474 C57.4070988,14.8695789 57.5147055,14.454 57.5147055,13.9732105 Z M67.4355996,11.3736316 L65.7993122,16.5838421 L64.7343386,16.5838421 L64.0565273,14.3213684 C63.8845785,13.7565789 63.7448007,13.1951053 63.6360847,12.6380526 L63.6150071,12.6380526 C63.5140564,13.2105789 63.3742787,13.7709474 63.1945644,14.3213684 L62.4745979,16.5838421 L61.3974215,16.5838421 L59.8587566,11.3736316 L61.0535238,11.3736316 L61.644806,13.8505263 C61.7879118,14.4363158 61.9055026,14.9944737 61.9997972,15.5227895 L62.0208748,15.5227895 C62.1074039,15.0873158 62.2505097,14.5324737 62.4524109,13.8615789 L63.1945644,11.3747368 L64.1419471,11.3747368 L64.8530388,13.8085263 C65.0249877,14.4020526 65.1647654,14.9734737 65.2723721,15.5238947 L65.3045432,15.5238947 C65.3833069,14.9878421 65.5020071,14.4164211 65.6595344,13.8085263 L66.2940811,11.3747368 L67.4355996,11.3747368 L67.4355996,11.3736316 Z M73.4626843,16.5838421 L72.3000882,16.5838421 L72.3000882,13.5996316 C72.3000882,12.6800526 71.9495344,12.2202632 71.2462081,12.2202632 C70.9012011,12.2202632 70.6227549,12.3462632 70.4064321,12.5993684 C70.192328,12.8524737 70.083612,13.1508947 70.083612,13.4924211 L70.083612,16.5827368 L68.9210159,16.5827368 L68.9210159,12.8624211 C68.9210159,12.4048421 68.9065944,11.9085789 68.8788607,11.3714211 L69.9005697,11.3714211 L69.9549277,12.186 L69.9870988,12.186 C70.1224392,11.9328947 70.3243404,11.724 70.5894744,11.5571053 C70.9045291,11.3625789 71.2573016,11.2642105 71.6433545,11.2642105 C72.1314674,11.2642105 72.5374885,11.4211579 72.8603086,11.7361579 C73.2618924,12.1218947 73.4626843,12.6977368 73.4626843,13.4625789 L73.4626843,16.5838421 Z M75.5072116,8.98294737 L76.6686984,8.98294737 L76.6686984,16.5838421 L75.5072116,16.5838421 L75.5072116,8.98294737 Z M83.5133721,13.9356316 C83.5133721,14.7369474 83.2837372,15.3934737 82.8244674,15.9085263 C82.3430106,16.4379474 81.7040265,16.7021053 80.9086243,16.7021053 C80.1398466,16.7021053 79.5285961,16.449 79.0737637,15.9405789 C78.6189312,15.4332632 78.391515,14.7933158 78.391515,14.0218421 C78.391515,13.215 78.6255873,12.5529474 79.0959506,12.039 C79.5663139,11.5250526 80.198642,11.2675263 80.9940441,11.2675263 C81.7628219,11.2675263 82.3785097,11.5206316 82.8466543,12.0279474 C83.2903933,12.5208947 83.5133721,13.1575263 83.5133721,13.9356316 Z M82.3064021,13.9732105 C82.3064021,13.4924211 82.2021235,13.0801579 81.9946755,12.7364211 C81.7517284,12.3208421 81.4033933,12.1130526 80.9529982,12.1130526 C80.4848536,12.1130526 80.1298624,12.3208421 79.8869153,12.7364211 C79.678358,13.0801579 79.5751887,13.4990526 79.5751887,13.9942105 C79.5751887,14.475 79.6794674,14.8872632 79.8869153,15.231 C80.1387372,15.6465789 80.489291,15.8543684 80.9419048,15.8543684 C81.3856437,15.8543684 81.7328695,15.6432632 81.983582,15.2199474 C82.1999048,14.8695789 82.3064021,14.454 82.3064021,13.9732105 Z M89.1399824,16.5838421 L88.0960864,16.5838421 L88.0095573,15.9836842 L87.9773862,15.9836842 C87.6201764,16.4622632 87.1109859,16.7021053 86.4498148,16.7021053 C85.9561552,16.7021053 85.5567901,16.5440526 85.256157,16.2301579 C84.9832575,15.945 84.8468078,15.5902105 84.8468078,15.1691053 C84.8468078,14.5324737 85.1130511,14.0472632 85.648866,13.7112632 C86.1835714,13.3752632 86.935709,13.2105789 87.9041693,13.2183158 L87.9041693,13.1210526 C87.9041693,12.4346842 87.542522,12.0920526 86.8181182,12.0920526 C86.3022716,12.0920526 85.8474392,12.2213684 85.4547302,12.4777895 L85.2184392,11.7173684 C85.7043333,11.4178421 86.3044903,11.2675263 87.012254,11.2675263 C88.37897,11.2675263 89.0645467,11.9859474 89.0645467,13.4227895 L89.0645467,15.3415263 C89.0645467,15.8621053 89.0900617,16.2765789 89.1399824,16.5838421 Z M87.9330123,14.7933158 L87.9330123,13.9897895 C86.6506067,13.9676842 86.0094039,14.3180526 86.0094039,15.0397895 C86.0094039,15.3116842 86.0826208,15.5150526 86.2323827,15.651 C86.3821446,15.7869474 86.5729524,15.8543684 86.8003686,15.8543684 C87.0555185,15.8543684 87.2940282,15.7736842 87.5114603,15.6134211 C87.7300018,15.4520526 87.8642328,15.2475789 87.9141534,14.9966842 C87.9263563,14.9403158 87.9330123,14.8717895 87.9330123,14.7933158 Z M95.7461464,16.5838421 L94.7144533,16.5838421 L94.6600952,15.7471579 L94.6279242,15.7471579 C94.298448,16.3837895 93.7371182,16.7021053 92.9483721,16.7021053 C92.3182628,16.7021053 91.7935414,16.4556316 91.3775362,15.9626842 C90.9615309,15.4697368 90.7540829,14.8297895 90.7540829,14.0439474 C90.7540829,13.2006316 90.9792804,12.5175789 91.4318942,11.9958947 C91.8700864,11.5095789 92.4070106,11.2664211 93.0459947,11.2664211 C93.7482116,11.2664211 94.2396526,11.5018421 94.5192081,11.9737895 L94.5413951,11.9737895 L94.5413951,8.98294737 L95.7051005,8.98294737 L95.7051005,15.1801579 C95.7051005,15.6874737 95.7184127,16.155 95.7461464,16.5838421 Z M94.5413951,14.3865789 L94.5413951,13.5178421 C94.5413951,13.3675263 94.5303016,13.2459474 94.509224,13.1531053 C94.4437725,12.8745789 94.3028854,12.6402632 94.0887813,12.4512632 C93.8724586,12.2622632 93.6117619,12.1672105 93.3111287,12.1672105 C92.8773739,12.1672105 92.5379136,12.3385263 92.2883104,12.6822632 C92.0409259,13.026 91.9155697,13.4647895 91.9155697,14.0008421 C91.9155697,14.5158947 92.0342698,14.9336842 92.2727795,15.2553158 C92.5246014,15.5979474 92.8640617,15.7692632 93.2889418,15.7692632 C93.6705573,15.7692632 93.9756279,15.6266842 94.2074815,15.3404211 C94.4315697,15.0762632 94.5413951,14.7579474 94.5413951,14.3865789 Z M105.689228,13.9356316 C105.689228,14.7369474 105.459593,15.3934737 105.000323,15.9085263 C104.518866,16.4379474 103.882101,16.7021053 103.08448,16.7021053 C102.317921,16.7021053 101.70667,16.449 101.249619,15.9405789 C100.794787,15.4332632 100.56737,14.7933158 100.56737,14.0218421 C100.56737,13.215 100.801443,12.5529474 101.271806,12.039 C101.742169,11.5250526 102.374497,11.2675263 103.172118,11.2675263 C103.938677,11.2675263 104.556584,11.5206316 105.02251,12.0279474 C105.466249,12.5208947 105.689228,13.1575263 105.689228,13.9356316 Z M104.484476,13.9732105 C104.484476,13.4924211 104.380198,13.0801579 104.17275,12.7364211 C103.927584,12.3208421 103.581467,12.1130526 103.128854,12.1130526 C102.662928,12.1130526 102.307937,12.3208421 102.062771,12.7364211 C101.854213,13.0801579 101.751044,13.4990526 101.751044,13.9942105 C101.751044,14.475 101.855323,14.8872632 102.062771,15.231 C102.314593,15.6465789 102.665146,15.8543684 103.11776,15.8543684 C103.561499,15.8543684 103.910944,15.6432632 104.161656,15.2199474 C104.37576,14.8695789 104.484476,14.454 104.484476,13.9732105 Z M111.9404,16.5838421 L110.778914,16.5838421 L110.778914,13.5996316 C110.778914,12.6800526 110.42836,12.2202632 109.723924,12.2202632 C109.378917,12.2202632 109.100471,12.3462632 108.885257,12.5993684 C108.670044,12.8524737 108.562437,13.1508947 108.562437,13.4924211 L108.562437,16.5827368 L107.398732,16.5827368 L107.398732,12.8624211 C107.398732,12.4048421 107.38542,11.9085789 107.357686,11.3714211 L108.378286,11.3714211 L108.432644,12.186 L108.464815,12.186 C108.601265,11.9328947 108.803166,11.724 109.06719,11.5571053 C109.383354,11.3625789 109.735018,11.2642105 110.12218,11.2642105 C110.609183,11.2642105 111.015205,11.4211579 111.338025,11.7361579 C111.740718,12.1218947 111.9404,12.6977368 111.9404,13.4625789 L111.9404,16.5838421 Z M119.764628,12.2412632 L118.484441,12.2412632 L118.484441,14.7723158 C118.484441,15.4155789 118.711857,15.7372105 119.162252,15.7372105 C119.37081,15.7372105 119.543868,15.7195263 119.680317,15.6830526 L119.71027,16.5617368 C119.480635,16.6479474 119.178892,16.6910526 118.807261,16.6910526 C118.347991,16.6910526 117.990781,16.5517895 117.732303,16.2732632 C117.472716,15.9947368 117.344032,15.5261053 117.344032,14.8684737 L117.344032,12.2412632 L116.579691,12.2412632 L116.579691,11.3736316 L117.344032,11.3736316 L117.344032,10.4186842 L118.483332,10.0760526 L118.483332,11.3725263 L119.763519,11.3725263 L119.763519,12.2412632 L119.764628,12.2412632 Z M125.919287,16.5838421 L124.755582,16.5838421 L124.755582,13.6217368 C124.755582,12.6877895 124.405028,12.2202632 123.702811,12.2202632 C123.163668,12.2202632 122.795365,12.4910526 122.593464,13.0326316 C122.559074,13.1464737 122.539106,13.2857368 122.539106,13.4493158 L122.539106,16.5827368 L121.377619,16.5827368 L121.377619,8.98294737 L122.539106,8.98294737 L122.539106,12.123 L122.561293,12.123 C122.927377,11.5515789 123.452099,11.2664211 124.132129,11.2664211 C124.613586,11.2664211 125.011841,11.4233684 125.328005,11.7383684 C125.721824,12.1307368 125.919287,12.7143158 125.919287,13.4857895 L125.919287,16.5838421 Z M132.268083,13.7322632 C132.268083,13.9400526 132.252552,14.1146842 132.224818,14.2572632 L128.738139,14.2572632 C128.75367,14.7723158 128.920072,15.1646842 129.242892,15.4365789 C129.537979,15.6797368 129.918485,15.8013158 130.384411,15.8013158 C130.900257,15.8013158 131.370621,15.7195263 131.794392,15.5548421 L131.976325,16.3594737 C131.480446,16.5738947 130.896929,16.6811053 130.221337,16.6811053 C129.411513,16.6811053 128.773638,16.4434737 128.31215,15.9682105 C127.848443,15.4929474 127.618808,14.8552105 127.618808,14.055 C127.618808,13.2691579 127.832912,12.6148421 128.264448,12.0931579 C128.714843,11.5361053 129.323875,11.2575789 130.092653,11.2575789 C130.84479,11.2575789 131.416104,11.5361053 131.802157,12.0931579 C132.113884,12.5352632 132.268083,13.0823684 132.268083,13.7322632 Z M131.158735,13.4327368 C131.16761,13.089 131.091065,12.7927895 130.933538,12.543 C130.731637,12.2213684 130.424347,12.06 130.008342,12.06 C129.628945,12.06 129.319437,12.2169474 129.083146,12.5319474 C128.89012,12.7828421 128.775857,13.0823684 128.738139,13.4327368 L131.158735,13.4327368 Z" id="download-on-the" fill="#ff4a37"></path>
                    <path d="M30.9145543,24.0616285 C30.9514754,28.3651876 34.6950482,29.7878241 34.7409198,29.8034208 C34.7185434,29.9036849 34.154658,31.8566073 32.7505385,33.8396089 C31.5780148,35.5853187 30.34955,37.292037 28.3983274,37.3232303 C26.5030457,37.3666781 25.8653181,36.2125266 23.6914502,36.2125266 C21.4974436,36.2125266 20.8183196,37.292037 19.0002366,37.3666781 C17.141876,37.4346348 15.722093,35.5028793 14.5070541,33.7727661 C12.0780952,30.2401268 10.1872888,23.8176524 12.7225357,19.4472506 C13.9510004,17.3038263 16.1908787,15.9235235 18.5851542,15.88676 C20.4457525,15.8488825 22.1720922,17.1378335 23.3155266,17.1378335 C24.4365846,17.1378335 26.5712938,15.5959941 28.7720134,15.8266015 C29.6928025,15.8533386 32.3130797,16.1886664 34.0036172,18.6429095 C33.8671212,18.7242348 30.8821085,20.4710587 30.9145543,24.0616285 Z M27.3343292,13.5027019 C26.3139651,14.7014152 24.6816062,15.618275 23.0917625,15.5001861 C22.883662,13.8825915 23.6892126,12.1625047 24.5909818,11.1130736 C25.6102271,9.92215854 27.3802009,9.00975499 28.7955086,8.94736842 C28.9812328,10.6284636 28.3121782,12.2850498 27.3343292,13.5027019 Z" fill="#ff4a37"></path>
                </g>
            </g>
        </g>
    </g>
</svg>