<?xml version="1.0" encoding="UTF-8"?>
<svg width="148px" height="50px" viewBox="0 0 148 50" version="1.1" xmlns="http://www.w3.org/2000/svg" xmlns:xlink="http://www.w3.org/1999/xlink">
    <!-- Generator: Sketch 52.1 (67048) - http://www.bohemiancoding.com/sketch -->
    <title>google play</title>
    <desc>Created with Sketch.</desc>
    <defs>
        <linearGradient x1="50%" y1="0%" x2="50%" y2="100%" id="linearGradient-1">
            <stop stop-color="#1E79AF" offset="0%"></stop>
            <stop stop-color="#63FFD3" offset="100%"></stop>
        </linearGradient>
        <linearGradient x1="84.7178118%" y1="14.4459862%" x2="5.24419544%" y2="96.5617838%" id="linearGradient-2">
            <stop stop-color="#DC4057" offset="0%"></stop>
            <stop stop-color="#9E36BB" offset="100%"></stop>
        </linearGradient>
        <linearGradient x1="50%" y1="0%" x2="50%" y2="97.8256537%" id="linearGradient-3">
            <stop stop-color="#FF9676" offset="0%"></stop>
            <stop stop-color="#FFD074" offset="100%"></stop>
        </linearGradient>
        <linearGradient x1="17.4435371%" y1="0%" x2="100%" y2="100%" id="linearGradient-4">
            <stop stop-color="#51C6AD" offset="0%"></stop>
            <stop stop-color="#D5FFA1" offset="100%"></stop>
        </linearGradient>
    </defs>
    <g id="Homepage" stroke="none" stroke-width="1" fill="none" fill-rule="evenodd">
        <g transform="translate(-970.000000, -3220.000000)" id="Footer">
            <g transform="translate(0.000000, 3112.000000)">
                <g id="google-play" transform="translate(970.000000, 108.000000)">
                    <rect id="bg" fill="#fff" x="0" y="0" width="148" height="50" rx="6.336"></rect>
                    <g transform="translate(11.059689, 15.549380)">
                        <path d="M0.925967264,-0.150311095 C0.509011244,-0.0193533598 0.239178381,0.404485221 0.239178381,1.04572654 L0.241748218,21.2274102 C0.241748218,21.8615553 0.503229111,22.2789427 0.908620865,22.4182869 L12.1548691,11.1249563 L0.925967264,-0.150311095" id="left" fill="#2943e0"></path>
                        <path d="M0.908620865,22.4182869 C1.20029734,22.5176342 1.56585662,22.4711861 1.96418133,22.251848 L15.6883947,14.6730723 L12.1548691,11.1249563 L0.908620865,22.4182869" id="bottom" fill="#2943e0"></path>
                        <path d="M15.6903221,14.6730723 L20.3699949,12.0893988 C21.3189071,11.5636325 21.3189071,10.708214 20.3699949,10.1837379 L15.6729757,7.59038773 L12.1548691,11.123021 L15.6903221,14.6730723" id="right" fill="#2943e0"></path>
                        <path d="M15.6723332,7.59038773 L1.96418133,0.0219338078 C1.57549351,-0.191598262 1.21700128,-0.241271886 0.926609723,-0.150311095 L12.1548691,11.123021 L15.6723332,7.59038773" id="top" fill="#2943e0"></path>
                    </g>
                    <path d="M51.2951649,36.611378 L48.3886795,37.279714 C47.2110518,37.4661514 46.153564,37.6300098 45.0337576,37.6300098 C39.4276586,37.6300098 37.2914818,33.4864555 37.2914818,30.2434775 C37.2914818,26.2831349 40.3181071,22.6111575 45.5014679,22.6111575 C46.5981457,22.6111575 47.6530637,22.7730806 48.6141827,23.0362863 C50.1374535,23.4659309 50.8499407,23.9955678 51.2951649,24.3058667 L49.6067822,25.9160662 L48.8949374,26.076054 L49.4024801,25.263858 C48.7150488,24.589716 47.4513316,23.3452949 45.0530314,23.3452949 C41.8465175,23.3452949 39.4276586,25.7928498 39.4276586,29.3661252 C39.4276586,33.2038964 42.1895907,36.8139431 46.6193469,36.8139431 C47.9209692,36.8139431 48.5910542,36.5513826 49.199463,36.30624 L49.199463,33.0161688 L46.1304354,33.1819626 L47.7571421,32.3046103 L52.0641886,32.3046103 L51.5373721,32.8136037 C51.3953886,32.9348847 51.3761148,32.9761719 51.3362823,33.1387401 C51.3150812,33.3245324 51.2951649,33.9154549 51.2951649,34.123181 L51.2951649,36.611378 Z M57.9606791,37.3668041 C54.5138855,37.3668041 52.6732399,34.6721713 52.6732399,32.2323578 C52.6732399,29.3816078 54.9918752,26.9424394 58.2876908,26.9424394 C61.4730035,26.9424394 63.4671969,29.4480544 63.4671969,32.0788211 C63.4671969,34.6483022 61.4967745,37.3668041 57.9606791,37.3668041 Z M60.6724994,35.6056484 C61.1928913,34.9089274 61.3226681,34.0393164 61.3226681,33.1916393 C61.3226681,31.2743664 60.410376,27.6178717 57.7242541,27.6178717 C57.0066272,27.6178717 56.29414,27.8984954 55.773748,28.3565249 C54.9257019,29.1184022 54.7753664,30.0757484 54.7753664,31.0150314 C54.7753664,33.1658348 55.8386364,36.7133057 58.4617973,36.7133057 C59.3079161,36.7133057 60.1720237,36.3010791 60.6724994,35.6056484 Z M69.4986038,37.3668041 C66.0524527,37.3668041 64.2085948,34.6721713 64.2085948,32.2323578 C64.2085948,29.3816078 66.5265876,26.9424394 69.8236882,26.9424394 C73.0109283,26.9424394 75.007049,29.4480544 75.007049,32.0788211 C75.007049,34.6483022 73.0340568,37.3668041 69.4986038,37.3668041 Z M72.2097817,35.6056484 C72.7340284,34.9089274 72.8612353,34.0393164 72.8612353,33.1916393 C72.8612353,31.2743664 71.9515131,27.6178717 69.2628213,27.6178717 C68.5477642,27.6178717 67.8275675,27.8984954 67.3084604,28.3565249 C66.4616992,29.1184022 66.3107213,30.0757484 66.3107213,31.0150314 C66.3107213,33.1658348 67.3694941,36.7133057 69.9971522,36.7133057 C70.8451983,36.7133057 71.7105909,36.3010791 72.2097817,35.6056484 Z M82.9401352,28.0107449 C83.4380411,28.4216812 84.4768976,29.2938726 84.4768976,30.9479398 C84.4768976,32.5600746 83.5716726,33.3200166 82.658738,34.0393164 C82.3786258,34.3225206 82.0509716,34.6295939 82.0509716,35.1043964 C82.0509716,35.586295 82.3786258,35.8475654 82.6144084,36.0423892 L83.3975661,36.6494396 C84.3496907,37.4564747 85.217653,38.1964181 85.217653,39.6995291 C85.217653,41.7471146 83.2440184,43.8121181 79.5145427,43.8121181 C76.3729173,43.8121181 74.8541437,42.3096522 74.8541437,40.6988076 C74.8541437,39.9149965 75.2428315,38.8047588 76.5251801,38.0441717 C77.8692047,37.2190735 79.6899341,37.1087593 80.6651872,37.0442481 C80.3606615,36.6494396 80.0130911,36.2359228 80.0130911,35.5611356 C80.0130911,35.1921316 80.1235941,34.9721484 80.2302423,34.7128134 C79.9931748,34.7353923 79.75418,34.7586163 79.5370288,34.7586163 C77.2376673,34.7586163 75.9379724,33.0361673 75.9379724,31.3388776 C75.9379724,30.3376638 76.3928335,29.226781 77.3269692,28.4216812 C78.5630607,27.3998238 80.0368621,27.2237082 81.2080652,27.2237082 L85.6757264,27.2237082 L84.2867297,28.0107449 L82.9401352,28.0107449 Z M81.4040152,37.6751677 C81.226054,37.6519436 81.1194058,37.6519436 80.9048244,37.6519436 C80.7082319,37.6519436 79.5370288,37.694521 78.6298764,38.0003041 C78.1499594,38.1764197 76.76289,38.6970251 76.76289,40.2433585 C76.76289,41.7864664 78.2604624,42.8992846 80.5771702,42.8992846 C82.658738,42.8992846 83.7637679,41.8974257 83.7637679,40.5484965 C83.7637679,39.4382587 83.0487108,38.852497 81.4040152,37.6751677 Z M82.0272007,33.5387095 C82.5283188,33.0361673 82.5720061,32.3420268 82.5720061,31.9478634 C82.5720061,30.3821766 81.6423676,27.9436532 79.8402695,27.9436532 C79.2781177,27.9436532 78.6690664,28.2268574 78.3234234,28.6648884 C77.9565792,29.1184022 77.8467187,29.7067443 77.8467187,30.2725075 C77.8467187,31.7304606 78.6934799,34.1483404 80.5559691,34.1483404 C81.0994896,34.1483404 81.6841274,33.8831993 82.0272007,33.5387095 Z M88.8655364,35.4553373 C88.8655364,36.3010791 89.0158718,36.4326819 89.7283591,36.4991285 C90.0997005,36.5429961 90.469757,36.5623495 90.8359587,36.6062171 L90.0341696,37.0855353 L86.2134648,37.0855353 C86.714583,36.4326819 86.8006725,36.3675256 86.8006725,35.9327202 L86.8006725,35.4469508 L86.7923205,22.5034238 L85.1052227,22.5034238 L86.7293595,21.7176774 L89.8298676,21.7176774 C89.1578553,22.1086152 88.9567656,22.3466615 88.870676,23.1085388 L88.8655364,35.4553373 Z M99.5220071,35.6237115 L98.4850779,36.6062171 C98.2454406,36.738465 98.0070883,36.8920017 97.7693784,37.0010256 C97.0491816,37.3293876 96.3167781,37.411962 95.665967,37.411962 C94.9733959,37.411962 93.8876399,37.3668041 92.7800402,36.5623495 C91.2413505,35.4740455 90.5686957,33.6032207 90.5686957,31.9730227 C90.5686957,28.5977968 93.3049294,26.9424394 95.5368327,26.9424394 C96.3167781,26.9424394 97.1179247,27.1385534 97.7693784,27.5520702 C98.8525646,28.2713701 99.1326768,29.2061374 99.2881519,29.7067443 L94.1915231,31.7743282 L92.5224141,31.9046409 C93.0627223,34.6721713 94.9271389,36.2817257 96.9875055,36.2817257 C98.0167252,36.2817257 98.7806092,35.9443322 99.4815321,35.5966168 C99.4815321,35.5966168 99.6222307,35.523074 99.5220071,35.6237115 Z M96.4471973,30.1189709 C96.8609411,29.9680147 97.0761649,29.837702 97.0761649,29.5344994 C97.0761649,28.6648884 96.0964146,27.660449 94.9271389,27.660449 C94.0611039,27.660449 92.4350397,28.3378166 92.4350397,30.689895 C92.4350397,31.0569637 92.4787269,31.4479016 92.5005705,31.8388394 L96.4471973,30.1189709 Z M105.771208,35.7166076 L105.771208,41.2613452 L104.67453,41.2613452 L104.67453,27.1521008 L105.771208,27.1521008 L105.771208,28.7590748 C106.485622,27.7204445 107.791099,26.8972816 109.307303,26.8972816 C112.026833,26.8972816 113.858484,28.9687362 113.858484,32.2478404 C113.858484,35.5050109 112.026833,37.619688 109.307303,37.619688 C107.875904,37.619688 106.593555,36.8784543 105.771208,35.7166076 Z M112.680214,32.2478404 C112.680214,29.7764164 111.397223,27.8913991 109.122275,27.8913991 C107.709507,27.8913991 106.358415,29.0061527 105.771208,29.9783364 L105.771208,34.4947655 C106.358415,35.4688846 107.709507,36.6242802 109.122275,36.6242802 C111.397223,36.6242802 112.680214,34.7231352 112.680214,32.2478404 Z M115.356056,23.2562695 L116.452092,23.2562695 L116.452092,37.3655139 L115.356056,37.3655139 L115.356056,23.2562695 Z M125.554454,37.3351936 C125.481213,36.9810271 125.425962,36.6687929 125.385487,36.4081677 C125.352079,36.1481876 125.332805,35.8824014 125.332805,35.6120995 C124.956967,36.1662507 124.424368,36.6275058 123.744004,36.9907038 C123.062997,37.3564823 122.416041,37.5358235 121.528804,37.5358235 C120.460395,37.5358235 119.63098,37.2719727 119.039275,36.7365297 C118.449497,36.2017319 118.152681,35.4772711 118.152681,34.5605669 C118.152681,33.645153 118.582487,32.901984 119.439527,32.3336403 C120.296568,31.7627162 121.404167,31.4788669 122.775175,31.4788669 L125.332805,31.4788669 L125.332805,30.2099316 C125.332805,29.4790198 125.084816,28.904225 124.58948,28.4874826 C124.092217,28.0700952 123.394506,27.8591435 122.489923,27.8591435 C121.663078,27.8591435 120.992351,28.052032 120.481596,28.4274872 C119.975338,28.8106837 119.720282,29.2854862 119.720282,29.8577005 L118.597906,29.8577005 L118.574777,29.802866 C118.534302,29.031312 118.885727,28.3545896 119.632907,27.7701181 C120.376875,27.1862917 121.351486,26.8927658 122.550957,26.8927658 C123.746574,26.8927658 124.714117,27.1817759 125.443308,27.7585061 C126.171857,28.3294302 126.537416,29.1545284 126.537416,30.2331557 L126.537416,35.2714804 C126.537416,35.6333882 126.554763,35.9830389 126.599735,36.323658 C126.645992,36.6649223 126.719875,37.0055414 126.818171,37.3351936 L125.554454,37.3351936 Z M121.663078,36.5326743 C122.594644,36.5326743 123.264087,36.323658 123.948306,35.9101412 C124.628028,35.4992049 125.090598,34.9631168 125.332805,34.3141342 L125.332805,32.3529937 L122.762969,32.3529937 C121.781291,32.3529937 120.96858,32.5710415 120.329333,33.0110079 C119.688801,33.4496841 119.364359,33.9806113 119.364359,34.5979834 C119.364359,35.1805196 119.569946,35.6462904 119.97855,35.9991667 C120.388439,36.3559136 120.948664,36.5326743 121.663078,36.5326743 Z M128.757755,40.3491569 C128.992253,40.4543101 129.392505,40.5188213 129.646276,40.5188213 C130.317004,40.5188213 130.784072,40.2433585 131.203597,39.2705296 L132.003459,37.4506687 L127.683564,27.1521008 L128.906806,27.1521008 L132.61251,36.0765801 L136.282237,27.1521008 L137.522826,27.1521008 L132.254018,39.6117939 C131.707285,40.8955667 130.847033,41.5129389 129.66555,41.5129389 C129.310913,41.5129389 128.843202,41.4497179 128.569515,41.3652083 L128.757755,40.3491569 Z" id="logotype" fill="#2943e0"></path>
                    <path d="M37.2097243,11.6229309 C37.2097243,9.43188611 38.8445015,8.02247259 40.8779889,8.02247259 C42.2404123,8.02247259 43.1307996,8.66981192 43.6866369,9.46252554 L42.6908435,10.0368518 C42.3137383,9.51467775 41.6531495,9.1085424 40.8779889,9.1085424 C39.4952698,9.1085424 38.4673963,10.1515866 38.4673963,11.6229309 C38.4673963,13.0727624 39.4952698,14.1373194 40.8779889,14.1373194 C41.5909534,14.1373194 42.219462,13.8139757 42.5337164,13.5114929 L42.5337164,12.4365054 L40.4380328,12.4365054 L40.4380328,11.3615179 L43.7494878,11.3615179 L43.7494878,13.9600019 C43.0686034,14.7220761 42.0832851,15.2331678 40.8779889,15.2331678 C38.8445015,15.2331678 37.2097243,13.8041972 37.2097243,11.6229309 Z M45.2657649,15.097572 L45.2657649,8.13720745 L50.0548699,8.13720745 L50.0548699,9.21284682 L46.4913568,9.21284682 L46.4913568,11.0068829 L49.9815439,11.0068829 L49.9815439,12.0818704 L46.4913568,12.0818704 L46.4913568,14.0225846 L50.0548699,14.0225846 L50.0548699,15.097572 L45.2657649,15.097572 Z M53.4475073,15.097572 L53.4475073,9.21284682 L51.3308734,9.21284682 L51.3308734,8.13720745 L56.7903877,8.13720745 L56.7903877,9.21284682 L54.6737538,9.21284682 L54.6737538,15.097572 L53.4475073,15.097572 Z M61.0518073,8.13720745 L62.2773992,8.13720745 L62.2773992,15.097572 L61.0518073,15.097572 L61.0518073,8.13720745 Z M65.6922962,15.097572 L65.6922962,9.21284682 L63.5756624,9.21284682 L63.5756624,8.13720745 L69.0351766,8.13720745 L69.0351766,9.21284682 L66.9185428,9.21284682 L66.9185428,15.097572 L65.6922962,15.097572 Z M72.992817,11.6229309 C72.992817,9.54596907 74.4698124,8.02247259 76.5668053,8.02247259 C78.651359,8.02247259 80.1401389,9.54596907 80.1401389,11.6229309 C80.1401389,13.6992408 78.651359,15.2227373 76.5668053,15.2227373 C74.4698124,15.2227373 72.992817,13.6992408 72.992817,11.6229309 Z M78.8824669,11.6229309 C78.8824669,10.182878 77.9704747,9.1085424 76.5668053,9.1085424 C75.1513515,9.1085424 74.2504891,10.182878 74.2504891,11.6229309 C74.2504891,13.0519015 75.1513515,14.1373194 76.5668053,14.1373194 C77.9704747,14.1373194 78.8824669,13.0519015 78.8824669,11.6229309 Z M86.4448664,15.097572 L82.7975521,10.1202953 L82.7975521,15.097572 L81.5719602,15.097572 L81.5719602,8.13720745 L82.8296322,8.13720745 L86.4029658,12.9586794 L86.4029658,8.13720745 L87.6292123,8.13720745 L87.6292123,15.097572 L86.4448664,15.097572 Z" id="get-it-on" fill="#2943e0"></path>
                </g>
            </g>
        </g>
    </g>
</svg>