<svg id="ig_bg" xmlns="http://www.w3.org/2000/svg" width="212.932" height="173.78" viewBox="0 0 212.932 173.78">
  <defs>
    <style>
      .cls-1 {
        fill: #eef3ff;
        fill-rule: evenodd;
      }
    </style>
  </defs>
  <path id="Shape_5_copy" data-name="Shape 5 copy" class="cls-1" d="M1054.49,2161.98c-1.69-25.69-17.19-46.09-36.26-32.41-6.75,4.84-10.17,13.77-16.85,18.73-6.139,4.57-13.991,5.47-21.362,5.76-14.925.59-32.534-5.27-36.2,15.6-2.5,14.22,15.477,22.44,11.7,36.18-1.178,4.29-5.232,7.61-8.558,10.4-8.264,6.93-14.387,12.85-20.33,22.45-11.128,17.97-11.648,26.13-7.088,36.95,4.946,11.72,22.128,22.18,35.806,15.99,16.407-7.42,14.269-21.66,32.526-29.87,15.407-6.93,20.7,6.27,27,16.99,11.88,20.21,33.36,18.49,47.3-.1,4.55-6.06,12.19-19.19,10.25-27.5-1.57-6.7-10.5-10.4-14.92-14.79-15.58-15.45,9.3-22.32,22.23-28.81,12.36-6.19,32.19-18.69,24.67-39.37-2.58-7.1-18.87-12.84-25.23-10.05C1070.17,2162.07,1055.15,2171.92,1054.49,2161.98Z" transform="translate(-904.188 -2125.19)"/>
  <path class="cls-1" d="M1075.32,2186.57c9.94-23.78,5.2-49.03-17.91-45.36-8.18,1.3-15.22,7.76-23.39,9.21-7.52,1.33-14.92-1.4-21.63-4.46-13.584-6.19-26.685-19.36-39.268-2.31-8.569,11.6,3.81,27.05-5.687,37.67-2.965,3.31-8.06,4.46-12.273,5.46-10.466,2.49-18.568,5.04-28.152,10.96-17.942,11.09-22.048,18.17-22.8,29.91-0.814,12.73,9.855,29.83,24.821,30.44,17.952,0.73,22.392-12.98,42.345-12.12,16.841,0.72,15.675,14.93,16.519,27.36,1.591,23.46,21.524,31.58,42.254,21.2,6.76-3.38,19.43-11.71,21.41-20.02,1.59-6.71-4.73-14.04-6.72-19.97-7.01-20.85,18.25-15.81,32.68-15.8,13.79,0.01,37.06-2.26,39.57-24.17,0.86-7.51-11.11-19.99-18.03-20.35C1089.27,2193.7,1071.47,2195.76,1075.32,2186.57Z" transform="translate(-904.188 -2125.19)"/>
</svg>
