<?xml version="1.0" encoding="UTF-8" standalone="no"?>
<!DOCTYPE svg PUBLIC "-//W3C//DTD SVG 1.1//EN" "http://www.w3.org/Graphics/SVG/1.1/DTD/svg11.dtd">
<svg version="1.1" xmlns="http://www.w3.org/2000/svg" xmlns:xlink="http://www.w3.org/1999/xlink" preserveAspectRatio="xMidYMid meet" viewBox="0 0 640 640" width="640" height="640"><defs><path d="M21.29 347.79C9.54 347.79 0 338.25 0 326.5C0 314.75 9.54 305.21 21.29 305.21C62.46 305.21 391.8 305.21 432.97 305.21C444.72 305.21 454.26 314.75 454.26 326.5C454.26 338.25 444.72 347.79 432.97 347.79C350.63 347.79 62.46 347.79 21.29 347.79Z" id="a1BjYK7Vwy"></path><path d="M304.35 455.11C296.03 446.8 296.03 433.31 304.35 424.99C310.92 418.42 343.76 385.58 402.87 326.47C343.76 267.36 310.92 234.52 304.35 227.96C296.03 219.64 296.03 206.15 304.35 197.83C312.68 189.51 326.16 189.51 334.48 197.83C345.83 209.19 436.69 300.04 448.04 311.4C456.36 319.72 456.36 333.2 448.04 341.52C436.69 352.88 345.83 443.73 334.48 455.08C330.3 459.29 324.86 461.36 319.4 461.36C313.95 461.36 308.5 459.29 304.35 455.11Z" id="b3n7hXmuvb"></path><path d="M50.03 440.74C45.71 429.84 51.1 417.47 62.03 413.15C72.94 408.89 85.35 414.2 89.66 425.19C130.57 529.07 229.12 596.22 340.7 596.22C489.41 596.22 610.41 475.21 610.41 326.5C610.41 177.79 489.41 56.78 340.7 56.78C229.12 56.78 130.57 123.93 89.66 227.81C85.31 238.8 72.94 244.11 62.03 239.85C51.1 235.53 45.71 223.16 50.03 212.26C97.41 91.93 211.48 14.19 340.7 14.19C512.89 14.19 653 154.31 653 326.5C653 498.69 512.89 638.81 340.7 638.81C211.48 638.81 97.41 561.07 50.03 440.74Z" id="brx6FzcUZ"></path></defs><g><g><g><use xlink:href="#a1BjYK7Vwy" opacity="1" fill="#ffffff" fill-opacity="1"></use><g><use xlink:href="#a1BjYK7Vwy" opacity="1" fill-opacity="0" stroke="#000000" stroke-width="1" stroke-opacity="0"></use></g></g><g><use xlink:href="#b3n7hXmuvb" opacity="1" fill="#ffffff" fill-opacity="1"></use><g><use xlink:href="#b3n7hXmuvb" opacity="1" fill-opacity="0" stroke="#000000" stroke-width="1" stroke-opacity="0"></use></g></g><g><use xlink:href="#brx6FzcUZ" opacity="1" fill="#ffffff" fill-opacity="1"></use><g><use xlink:href="#brx6FzcUZ" opacity="1" fill-opacity="0" stroke="#000000" stroke-width="1" stroke-opacity="0"></use></g></g></g></g></svg>