<?xml version="1.0" encoding="UTF-8" standalone="no"?>
<!DOCTYPE svg PUBLIC "-//W3C//DTD SVG 1.1//EN" "http://www.w3.org/Graphics/SVG/1.1/DTD/svg11.dtd">
<svg version="1.1" xmlns="http://www.w3.org/2000/svg" xmlns:xlink="http://www.w3.org/1999/xlink" preserveAspectRatio="xMidYMid meet" viewBox="0 0 640 640" width="640" height="640"><defs><path d="M234.67 373.33C234.67 296.87 296.87 234.67 373.33 234.67C449.79 234.67 512 296.87 512 373.33C512 449.79 449.79 512 373.33 512C296.87 512 234.67 449.79 234.67 373.33ZM256 373.33C256 438.02 308.63 490.67 373.33 490.67C438.04 490.67 490.67 438.02 490.67 373.33C490.67 308.65 438.04 256 373.33 256C308.63 256 256 308.65 256 373.33Z" id="a5zqQjv8O"></path><path d="M344.45 423.55C340.18 419.29 306.05 385.15 301.78 380.89C297.62 376.73 297.62 369.96 301.78 365.8C305.94 361.64 312.7 361.64 316.86 365.8C319.17 368.11 330.71 379.64 351.47 400.41C391.76 354.35 414.15 328.77 418.62 323.65C422.51 319.19 429.25 318.76 433.69 322.65C438.12 326.53 438.57 333.25 434.69 337.69C427.22 346.22 367.49 414.49 360.02 423.02C358.08 425.24 355.29 426.56 352.34 426.67C352.23 426.67 352.11 426.67 352 426.67C349.18 426.67 346.45 425.54 344.45 423.55Z" id="b2dmjFtCb7"></path><path d="M53.33 448C23.94 448 0 424.09 0 394.67C0 366.93 0 145.07 0 117.33C0 87.91 23.94 64 53.33 64C57.6 64 91.73 64 96 64C101.89 64 106.67 68.78 106.67 74.67C106.67 80.55 101.89 85.33 96 85.33C91.73 85.33 57.6 85.33 53.33 85.33C35.69 85.33 21.33 99.69 21.33 117.33C21.33 145.07 21.33 366.93 21.33 394.67C21.33 412.31 35.69 426.67 53.33 426.67C68.27 426.67 187.73 426.67 202.67 426.67C208.55 426.67 213.33 431.45 213.33 437.33C213.33 443.22 208.55 448 202.67 448C172.8 448 68.27 448 53.33 448Z" id="cSqSyZEbP"></path><path d="M341.33 181.33C341.33 174.93 341.33 123.73 341.33 117.33C341.33 99.69 326.98 85.33 309.33 85.33C305.07 85.33 270.93 85.33 266.67 85.33C260.78 85.33 256 80.55 256 74.67C256 68.78 260.78 64 266.67 64C270.93 64 305.07 64 309.33 64C338.73 64 362.67 87.91 362.67 117.33C362.67 123.73 362.67 174.93 362.67 181.33C362.67 187.22 357.89 192 352 192C346.11 192 341.33 187.22 341.33 181.33Z" id="cHSFthu0N"></path><path d="M117.33 128C99.69 128 85.33 113.64 85.33 96C85.33 91.73 85.33 57.6 85.33 53.33C85.33 47.45 90.11 42.67 96 42.67C99.31 42.67 125.76 42.67 129.07 42.67C134.04 18.35 155.56 0 181.33 0C207.1 0 228.63 18.35 233.6 42.67C236.91 42.67 263.36 42.67 266.67 42.67C272.55 42.67 277.33 47.45 277.33 53.33C277.33 57.6 277.33 91.73 277.33 96C277.33 113.64 262.98 128 245.33 128C219.73 128 130.13 128 117.33 128ZM106.67 64C106.67 83.2 106.67 93.87 106.67 96C106.67 101.87 111.45 106.67 117.33 106.67C130.13 106.67 232.53 106.67 245.33 106.67C251.22 106.67 256 101.87 256 96C256 93.87 256 83.2 256 64C236.8 64 226.13 64 224 64C218.11 64 213.33 59.22 213.33 53.33C213.33 35.69 198.98 21.33 181.33 21.33C163.69 21.33 149.33 35.69 149.33 53.33C149.33 59.22 144.55 64 138.67 64C134.4 64 123.73 64 106.67 64Z" id="c53yQ1ces"></path><path d="M74.67 192C68.78 192 64 187.22 64 181.33C64 175.45 68.78 170.67 74.67 170.67C96 170.67 266.67 170.67 288 170.67C293.89 170.67 298.67 175.45 298.67 181.33C298.67 187.22 293.89 192 288 192C245.33 192 96 192 74.67 192Z" id="d9aDiBYJuy"></path><path d="M74.67 256C68.78 256 64 251.22 64 245.33C64 239.45 68.78 234.67 74.67 234.67C89.6 234.67 209.07 234.67 224 234.67C229.89 234.67 234.67 239.45 234.67 245.33C234.67 251.22 229.89 256 224 256C194.13 256 89.6 256 74.67 256Z" id="d4wJMlhzLJ"></path><path d="M74.67 320C68.78 320 64 315.22 64 309.33C64 303.45 68.78 298.67 74.67 298.67C85.33 298.67 170.67 298.67 181.33 298.67C187.22 298.67 192 303.45 192 309.33C192 315.22 187.22 320 181.33 320C160 320 85.33 320 74.67 320Z" id="aavVXaYT7"></path></defs><g><g><g><use xlink:href="#a5zqQjv8O" opacity="1" fill="#ffffff" fill-opacity="1"></use><g><use xlink:href="#a5zqQjv8O" opacity="1" fill-opacity="0" stroke="#000000" stroke-width="1" stroke-opacity="0"></use></g></g><g><use xlink:href="#b2dmjFtCb7" opacity="1" fill="#ffffff" fill-opacity="1"></use><g><use xlink:href="#b2dmjFtCb7" opacity="1" fill-opacity="0" stroke="#000000" stroke-width="1" stroke-opacity="0"></use></g></g><g><use xlink:href="#cSqSyZEbP" opacity="1" fill="#ffffff" fill-opacity="1"></use><g><use xlink:href="#cSqSyZEbP" opacity="1" fill-opacity="0" stroke="#000000" stroke-width="1" stroke-opacity="0"></use></g></g><g><use xlink:href="#cHSFthu0N" opacity="1" fill="#ffffff" fill-opacity="1"></use><g><use xlink:href="#cHSFthu0N" opacity="1" fill-opacity="0" stroke="#000000" stroke-width="1" stroke-opacity="0"></use></g></g><g><use xlink:href="#c53yQ1ces" opacity="1" fill="#ffffff" fill-opacity="1"></use><g><use xlink:href="#c53yQ1ces" opacity="1" fill-opacity="0" stroke="#000000" stroke-width="1" stroke-opacity="0"></use></g></g><g><use xlink:href="#d9aDiBYJuy" opacity="1" fill="#ffffff" fill-opacity="1"></use><g><use xlink:href="#d9aDiBYJuy" opacity="1" fill-opacity="0" stroke="#000000" stroke-width="1" stroke-opacity="0"></use></g></g><g><use xlink:href="#d4wJMlhzLJ" opacity="1" fill="#ffffff" fill-opacity="1"></use><g><use xlink:href="#d4wJMlhzLJ" opacity="1" fill-opacity="0" stroke="#000000" stroke-width="1" stroke-opacity="0"></use></g></g><g><use xlink:href="#aavVXaYT7" opacity="1" fill="#ffffff" fill-opacity="1"></use><g><use xlink:href="#aavVXaYT7" opacity="1" fill-opacity="0" stroke="#000000" stroke-width="1" stroke-opacity="0"></use></g></g></g></g></svg>